<svg width="39" height="44" viewBox="0 0 39 44" fill="none" xmlns="http://www.w3.org/2000/svg">
<path fill-rule="evenodd" clip-rule="evenodd" d="M37.2541 33.5489C36.9483 33.3328 36.5283 33.3776 36.2754 33.659C36.2183 33.7243 36.1735 33.7691 36.1612 33.7895C35.8146 34.2054 35.4476 34.6051 35.0643 34.9884C32.8051 37.2476 29.9628 38.9236 26.7902 39.7799C26.6924 39.8044 26.5986 39.8329 26.5007 39.8574C26.3743 39.89 26.2479 39.9145 26.1255 39.9431C25.9216 39.9879 25.7177 40.0368 25.5098 40.0776C25.469 40.0858 25.4282 40.0899 25.3915 40.098C25.1061 40.151 24.8206 40.2 24.5351 40.2367C23.6869 40.3549 22.8224 40.4202 21.9457 40.4202C17.9371 40.4202 14.2262 39.1519 11.1923 36.9907C10.8456 36.6807 10.6499 36.2281 10.6662 35.7469C10.6866 35.1311 11.0577 34.5847 11.6245 34.3359C12.0568 34.1484 12.542 34.1606 12.958 34.3604C15.4822 36.171 18.5773 37.2394 21.9253 37.2394C23.116 37.2394 24.3109 37.1048 25.4649 36.8357C28.299 36.171 30.8355 34.7233 32.8255 32.7333C33.0539 32.505 33.2741 32.2684 33.4821 32.0278C33.8124 31.6486 33.743 31.0655 33.3353 30.7719L32.4177 30.1112C32.063 29.8543 31.5736 29.9114 31.28 30.2376C31.1291 30.4048 30.9782 30.568 30.8192 30.7229C30.2075 31.3346 29.5265 31.8729 28.7966 32.35C28.4948 32.4112 28.1808 32.3949 27.8831 32.2766C27.3 32.0482 26.9085 31.5018 26.8718 30.8779C26.8432 30.3926 27.0349 29.9318 27.3815 29.6096L24.4536 31.1715C24.9022 31.0736 25.3834 31.1715 25.7626 31.4529C26.2764 31.8362 26.5129 32.4846 26.3743 33.1044C26.3253 33.3165 26.0603 33.6509 25.6851 33.8262C24.788 34.132 24.0295 34.2707 22.9121 34.3563C22.9121 34.3563 20.6 34.6132 18.194 33.8262C16.2366 33.2104 14.4831 32.1339 13.0722 30.7188C10.8008 28.4474 9.3939 25.3115 9.3939 21.8453C9.3939 18.3791 10.7967 15.2432 13.0722 12.9718C13.4718 12.5722 13.9 12.197 14.3526 11.8504C14.3526 11.8504 16.4242 10.3375 18.6834 9.72581C19.7232 9.44443 20.8161 9.29763 21.9457 9.29763C23.8541 9.29763 25.3874 9.60347 27.0064 10.362C27.3897 10.5332 27.4549 10.8799 27.4753 11.1001C27.5446 11.724 27.2429 12.3234 26.7046 12.6456C26.2886 12.8943 25.7911 12.9392 25.3466 12.7802L28.0911 14.6478C27.7934 14.2971 27.6547 13.8282 27.7281 13.3592C27.8301 12.7271 28.2909 12.2133 28.9067 12.0502C29.2125 11.9687 29.5224 11.985 29.8119 12.0788C30.1586 12.3601 30.493 12.6578 30.811 12.9718C30.9701 13.1309 31.125 13.298 31.28 13.4652C31.5736 13.7915 32.063 13.8486 32.4177 13.5917L33.3353 12.9351V12.9433H33.3393C33.7553 12.666 33.8368 12.0828 33.5065 11.7077C33.2863 11.4548 33.058 11.2061 32.8174 10.9655C30.4766 8.6207 27.3774 7.03032 23.9235 6.58583C23.8704 6.57767 23.5564 6.54097 23.5564 6.54097C23.116 6.41863 22.7368 6.10871 22.5288 5.68053C22.2556 5.10147 22.3494 4.41638 22.7653 3.93519C23.0304 3.62935 23.3933 3.44176 23.7807 3.39283C23.8501 3.38467 23.9194 3.38467 23.9887 3.39283C28.295 3.86587 32.1608 5.81102 35.0684 8.71857C35.4517 9.10189 35.8146 9.50152 36.1653 9.91339C36.4508 10.2519 36.9687 10.3293 37.3275 10.0724L38.2369 9.41997L38.2491 9.4322C38.6528 9.14267 38.7262 8.57176 38.4122 8.18844C37.4662 7.03847 36.3855 5.97006 35.1622 5.00768C31.5124 2.15315 26.9126 0.44043 21.9171 0.44043C16.0042 0.44043 10.6458 2.83824 6.77181 6.71632C2.89373 10.5903 0.5 15.9446 0.5 21.8576C0.5 27.7705 2.89373 33.1248 6.77181 37.0029C10.6499 40.8769 16.0042 43.2747 21.9171 43.2747C23.2465 43.2747 24.5474 43.1524 25.8115 42.9199C25.9746 42.8914 26.1378 42.8547 26.3009 42.822C26.4273 42.7976 26.5537 42.7731 26.6801 42.7446C31.0802 41.7577 34.9053 39.4537 37.7761 36.3056C38.0371 36.0201 38.2899 35.7306 38.5305 35.4329C38.8037 35.1026 38.7385 34.6092 38.3919 34.3604L37.2541 33.5489ZM6.39664 11.6995C7.09804 10.627 7.90955 9.63202 8.80668 8.7308C11.6857 5.8518 15.5108 3.9148 19.7722 3.4173C19.8292 3.40914 19.8904 3.40914 19.9475 3.41322C20.3635 3.44584 20.759 3.64158 21.0404 3.97189C21.4482 4.44901 21.5379 5.1137 21.2769 5.68053C21.0771 6.12094 20.6897 6.43902 20.233 6.55728C16.6566 6.94468 13.4473 8.56361 11.0332 10.9736C10.2829 11.724 9.61411 12.5477 9.03097 13.4367C8.99427 13.4938 8.95349 13.5468 8.90455 13.5917C8.59871 13.869 8.19092 14.0239 7.76274 14.0076C7.14698 13.9831 6.60054 13.608 6.35994 13.0411C6.16828 12.6007 6.19275 12.1114 6.39664 11.6954V11.6995ZM10.552 33.3572C10.3644 33.9608 9.83431 34.4012 9.20632 34.4746C8.79445 34.5235 8.39482 34.4134 8.07266 34.1769C8.01965 34.1402 7.97479 34.0913 7.92993 34.0423C5.09172 30.7841 3.37084 26.5227 3.37084 21.8616C3.37084 19.6147 3.77048 17.4575 4.50042 15.4634C4.52081 15.4022 4.54936 15.3411 4.58606 15.2881C4.80626 14.9496 5.14473 14.7008 5.54844 14.5989C6.1642 14.4439 6.80851 14.6641 7.19999 15.1616C7.45282 15.4797 7.567 15.8712 7.54253 16.2586C7.53846 16.3361 7.51807 16.4095 7.48952 16.4829C6.8656 18.1548 6.52306 19.9695 6.52306 21.8576C6.52306 25.7479 7.96664 29.2957 10.3481 32.0075C10.3971 32.0645 10.4419 32.1257 10.4745 32.191C10.6417 32.5498 10.6744 32.9658 10.552 33.3532V33.3572Z" fill="url(#paint0_linear_926_337)"/>
<path fill-rule="evenodd" clip-rule="evenodd" d="M28.3162 14.8556C27.1662 13.7056 25.7389 12.8371 24.1404 12.3599C22.5296 11.9481 21.0861 11.9521 21.0861 11.9521H21.0779C20.719 11.9603 20.4336 12.2661 20.4336 12.625V14.2847C20.4336 14.664 20.7476 14.9698 21.1228 14.9576C21.1758 14.9576 21.2329 14.9576 21.2859 14.9576C23.1943 14.9576 24.9152 15.7283 26.1671 16.9761C27.415 18.224 28.1857 19.9489 28.1857 21.8533C28.1857 23.7577 27.415 25.4826 26.1671 26.7305C24.9152 27.9783 23.1943 28.749 21.2859 28.749C21.2288 28.749 21.1758 28.749 21.1228 28.749C20.7435 28.7368 20.4336 29.0426 20.4336 29.4219V31.0775C20.4336 31.4445 20.7231 31.7422 21.0901 31.7544C21.1635 31.7544 21.241 31.7544 21.3144 31.7544C22.2238 31.7544 23.1087 31.6321 23.9447 31.3997C25.5636 30.9919 27.1907 29.8215 27.1907 29.8215C27.5903 29.5279 27.9696 29.2017 28.3162 28.851C30.1064 27.0608 31.2156 24.5814 31.2156 21.8492C31.2156 19.117 30.1064 16.6417 28.3162 14.8475V14.8556Z" fill="#4BBE9E"/>
<path d="M21.1247 25.6536C23.2214 25.6536 24.9212 23.9538 24.9212 21.8571C24.9212 19.7603 23.2214 18.0605 21.1247 18.0605C19.0279 18.0605 17.3281 19.7603 17.3281 21.8571C17.3281 23.9538 19.0279 25.6536 21.1247 25.6536Z" fill="#4BBE9E"/>
<defs>
<linearGradient id="paint0_linear_926_337" x1="0.5" y1="21.8576" x2="38.7018" y2="21.8576" gradientUnits="userSpaceOnUse">
<stop offset="0.09" stop-color="#4BBE9E"/>
<stop offset="0.56" stop-color="#118ACB"/>
</linearGradient>
</defs>
</svg>
